<mxfile host="app.diagrams.net" agent="Mozilla/5.0 (Windows NT 10.0; Win64; x64) AppleWebKit/537.36 (KHTML, like Gecko) Chrome/138.0.0.0 Safari/537.36 Edg/138.0.0.0" version="28.0.6">
  <diagram name="Page-1" id="WZi1igoXtlprFL1kJoup">
    <mxGraphModel dx="2767" dy="2845" grid="1" gridSize="10" guides="1" tooltips="1" connect="1" arrows="1" fold="1" page="1" pageScale="1" pageWidth="827" pageHeight="1169" math="0" shadow="0">
      <root>
        <mxCell id="0" />
        <mxCell id="1" parent="0" />
        <mxCell id="TFrSJje2NMNWRHDvTqmv-46" value="" style="rounded=0;whiteSpace=wrap;html=1;labelPosition=center;verticalLabelPosition=top;align=center;verticalAlign=bottom;dashed=1;dashPattern=1 4;" vertex="1" parent="1">
          <mxGeometry x="-230" y="110" width="1680" height="1090" as="geometry" />
        </mxCell>
        <mxCell id="TFrSJje2NMNWRHDvTqmv-6" value="Serveur" style="rounded=0;whiteSpace=wrap;html=1;labelPosition=center;verticalLabelPosition=top;align=center;verticalAlign=bottom;dashed=1;dashPattern=1 4;" vertex="1" parent="1">
          <mxGeometry x="30" y="190" width="1390" height="980" as="geometry" />
        </mxCell>
        <mxCell id="TFrSJje2NMNWRHDvTqmv-7" value="Conteneur Docker" style="rounded=0;whiteSpace=wrap;html=1;labelPosition=center;verticalLabelPosition=top;align=center;verticalAlign=bottom;" vertex="1" parent="1">
          <mxGeometry x="70" y="260" width="580" height="550" as="geometry" />
        </mxCell>
        <mxCell id="TFrSJje2NMNWRHDvTqmv-2" value="Application front-end Angular 20" style="rounded=0;whiteSpace=wrap;html=1;labelPosition=center;verticalLabelPosition=top;align=center;verticalAlign=bottom;" vertex="1" parent="1">
          <mxGeometry x="90" y="315" width="540" height="475" as="geometry" />
        </mxCell>
        <mxCell id="TFrSJje2NMNWRHDvTqmv-19" value="App Module" style="rounded=0;whiteSpace=wrap;html=1;labelPosition=center;verticalLabelPosition=bottom;align=center;verticalAlign=top;" vertex="1" parent="1">
          <mxGeometry x="100" y="330" width="520" height="430" as="geometry" />
        </mxCell>
        <mxCell id="TFrSJje2NMNWRHDvTqmv-1" value="Utilisateur" style="shape=umlActor;verticalLabelPosition=middle;verticalAlign=middle;html=1;labelPosition=left;align=right;" vertex="1" parent="1">
          <mxGeometry x="-150" y="365" width="30" height="60" as="geometry" />
        </mxCell>
        <mxCell id="TFrSJje2NMNWRHDvTqmv-21" value="App Routing" style="rounded=1;whiteSpace=wrap;html=1;" vertex="1" parent="1">
          <mxGeometry x="110" y="370" width="500" height="50" as="geometry" />
        </mxCell>
        <mxCell id="TFrSJje2NMNWRHDvTqmv-22" value="" style="group" vertex="1" connectable="0" parent="1">
          <mxGeometry x="110" y="430" width="150" height="300" as="geometry" />
        </mxCell>
        <mxCell id="TFrSJje2NMNWRHDvTqmv-18" value="Module Authentification" style="rounded=0;whiteSpace=wrap;html=1;labelPosition=center;verticalLabelPosition=bottom;align=center;verticalAlign=top;" vertex="1" parent="TFrSJje2NMNWRHDvTqmv-22">
          <mxGeometry width="150" height="300" as="geometry" />
        </mxCell>
        <mxCell id="TFrSJje2NMNWRHDvTqmv-12" value="Composants" style="rounded=1;whiteSpace=wrap;html=1;" vertex="1" parent="TFrSJje2NMNWRHDvTqmv-22">
          <mxGeometry x="15" y="155" width="120" height="60" as="geometry" />
        </mxCell>
        <mxCell id="TFrSJje2NMNWRHDvTqmv-13" value="Templates" style="rounded=1;whiteSpace=wrap;html=1;" vertex="1" parent="TFrSJje2NMNWRHDvTqmv-22">
          <mxGeometry x="15" y="85" width="120" height="60" as="geometry" />
        </mxCell>
        <mxCell id="TFrSJje2NMNWRHDvTqmv-14" value="Services" style="rounded=1;whiteSpace=wrap;html=1;" vertex="1" parent="TFrSJje2NMNWRHDvTqmv-22">
          <mxGeometry x="15" y="225" width="120" height="60" as="geometry" />
        </mxCell>
        <mxCell id="TFrSJje2NMNWRHDvTqmv-20" value="Routing" style="rounded=1;whiteSpace=wrap;html=1;" vertex="1" parent="TFrSJje2NMNWRHDvTqmv-22">
          <mxGeometry x="15" y="15" width="120" height="60" as="geometry" />
        </mxCell>
        <mxCell id="TFrSJje2NMNWRHDvTqmv-24" value="Module Livraison" style="rounded=0;whiteSpace=wrap;html=1;labelPosition=center;verticalLabelPosition=bottom;align=center;verticalAlign=top;" vertex="1" parent="1">
          <mxGeometry x="285" y="430" width="150" height="300" as="geometry" />
        </mxCell>
        <mxCell id="TFrSJje2NMNWRHDvTqmv-25" value="Composants" style="rounded=1;whiteSpace=wrap;html=1;" vertex="1" parent="1">
          <mxGeometry x="300" y="585" width="120" height="60" as="geometry" />
        </mxCell>
        <mxCell id="TFrSJje2NMNWRHDvTqmv-26" value="Templates" style="rounded=1;whiteSpace=wrap;html=1;" vertex="1" parent="1">
          <mxGeometry x="300" y="515" width="120" height="60" as="geometry" />
        </mxCell>
        <mxCell id="TFrSJje2NMNWRHDvTqmv-27" value="Services" style="rounded=1;whiteSpace=wrap;html=1;" vertex="1" parent="1">
          <mxGeometry x="300" y="655" width="120" height="60" as="geometry" />
        </mxCell>
        <mxCell id="TFrSJje2NMNWRHDvTqmv-28" value="Routing" style="rounded=1;whiteSpace=wrap;html=1;" vertex="1" parent="1">
          <mxGeometry x="300" y="445" width="120" height="60" as="geometry" />
        </mxCell>
        <mxCell id="TFrSJje2NMNWRHDvTqmv-30" value="Module Clients" style="rounded=0;whiteSpace=wrap;html=1;labelPosition=center;verticalLabelPosition=bottom;align=center;verticalAlign=top;" vertex="1" parent="1">
          <mxGeometry x="460" y="430" width="150" height="300" as="geometry" />
        </mxCell>
        <mxCell id="TFrSJje2NMNWRHDvTqmv-31" value="Composants" style="rounded=1;whiteSpace=wrap;html=1;" vertex="1" parent="1">
          <mxGeometry x="475" y="585" width="120" height="60" as="geometry" />
        </mxCell>
        <mxCell id="TFrSJje2NMNWRHDvTqmv-32" value="Templates" style="rounded=1;whiteSpace=wrap;html=1;" vertex="1" parent="1">
          <mxGeometry x="475" y="515" width="120" height="60" as="geometry" />
        </mxCell>
        <mxCell id="TFrSJje2NMNWRHDvTqmv-33" value="Services" style="rounded=1;whiteSpace=wrap;html=1;" vertex="1" parent="1">
          <mxGeometry x="475" y="655" width="120" height="60" as="geometry" />
        </mxCell>
        <mxCell id="TFrSJje2NMNWRHDvTqmv-34" value="Routing" style="rounded=1;whiteSpace=wrap;html=1;" vertex="1" parent="1">
          <mxGeometry x="475" y="445" width="120" height="60" as="geometry" />
        </mxCell>
        <mxCell id="TFrSJje2NMNWRHDvTqmv-35" value="HTTP" style="shape=flexArrow;endArrow=classic;startArrow=classic;html=1;rounded=0;entryX=0.022;entryY=0.214;entryDx=0;entryDy=0;entryPerimeter=0;labelPosition=center;verticalLabelPosition=bottom;align=center;verticalAlign=top;" edge="1" parent="1" target="TFrSJje2NMNWRHDvTqmv-6">
          <mxGeometry width="100" height="100" relative="1" as="geometry">
            <mxPoint x="-110" y="400" as="sourcePoint" />
            <mxPoint x="10" y="400" as="targetPoint" />
          </mxGeometry>
        </mxCell>
        <mxCell id="TFrSJje2NMNWRHDvTqmv-43" value="" style="group" vertex="1" connectable="0" parent="1">
          <mxGeometry x="850" y="260" width="500" height="500" as="geometry" />
        </mxCell>
        <mxCell id="TFrSJje2NMNWRHDvTqmv-8" value="Conteneur Docker" style="rounded=0;whiteSpace=wrap;html=1;labelPosition=center;verticalLabelPosition=top;align=center;verticalAlign=bottom;" vertex="1" parent="TFrSJje2NMNWRHDvTqmv-43">
          <mxGeometry width="500" height="500" as="geometry" />
        </mxCell>
        <mxCell id="TFrSJje2NMNWRHDvTqmv-3" value="Application base-end Java 21 / Spring Boot 3.5.3" style="rounded=0;whiteSpace=wrap;html=1;labelPosition=center;verticalLabelPosition=top;align=center;verticalAlign=bottom;" vertex="1" parent="TFrSJje2NMNWRHDvTqmv-43">
          <mxGeometry x="20" y="40" width="460" height="440" as="geometry" />
        </mxCell>
        <mxCell id="TFrSJje2NMNWRHDvTqmv-36" value="Controlleurs" style="rounded=1;whiteSpace=wrap;html=1;" vertex="1" parent="TFrSJje2NMNWRHDvTqmv-43">
          <mxGeometry x="180" y="70" width="280" height="80" as="geometry" />
        </mxCell>
        <mxCell id="TFrSJje2NMNWRHDvTqmv-37" value="Services" style="rounded=1;whiteSpace=wrap;html=1;" vertex="1" parent="TFrSJje2NMNWRHDvTqmv-43">
          <mxGeometry x="180" y="170" width="280" height="50" as="geometry" />
        </mxCell>
        <mxCell id="TFrSJje2NMNWRHDvTqmv-38" value="EntitÃ©s" style="rounded=1;whiteSpace=wrap;html=1;" vertex="1" parent="TFrSJje2NMNWRHDvTqmv-43">
          <mxGeometry x="275" y="350" width="90" height="50" as="geometry" />
        </mxCell>
        <mxCell id="TFrSJje2NMNWRHDvTqmv-39" value="DTOs" style="rounded=1;whiteSpace=wrap;html=1;" vertex="1" parent="TFrSJje2NMNWRHDvTqmv-43">
          <mxGeometry x="270" y="230" width="100" height="50" as="geometry" />
        </mxCell>
        <mxCell id="TFrSJje2NMNWRHDvTqmv-40" value="Mappers" style="rounded=1;whiteSpace=wrap;html=1;" vertex="1" parent="TFrSJje2NMNWRHDvTqmv-43">
          <mxGeometry x="180" y="289" width="280" height="50" as="geometry" />
        </mxCell>
        <mxCell id="TFrSJje2NMNWRHDvTqmv-41" value="Repositories" style="rounded=1;whiteSpace=wrap;html=1;" vertex="1" parent="TFrSJje2NMNWRHDvTqmv-43">
          <mxGeometry x="180" y="410" width="280" height="50" as="geometry" />
        </mxCell>
        <mxCell id="TFrSJje2NMNWRHDvTqmv-42" value="Filters" style="rounded=1;whiteSpace=wrap;html=1;" vertex="1" parent="TFrSJje2NMNWRHDvTqmv-43">
          <mxGeometry x="40" y="70" width="120" height="390" as="geometry" />
        </mxCell>
        <mxCell id="TFrSJje2NMNWRHDvTqmv-9" value="Conteneur Docker" style="rounded=0;whiteSpace=wrap;html=1;labelPosition=center;verticalLabelPosition=top;align=center;verticalAlign=bottom;" vertex="1" parent="1">
          <mxGeometry x="830" y="920" width="540" height="220" as="geometry" />
        </mxCell>
        <mxCell id="TFrSJje2NMNWRHDvTqmv-5" value="Base de donnÃ©es MySQL 9" style="shape=cylinder3;whiteSpace=wrap;html=1;boundedLbl=1;backgroundOutline=1;size=15;labelPosition=center;verticalLabelPosition=bottom;align=center;verticalAlign=top;" vertex="1" parent="1">
          <mxGeometry x="1045" y="960" width="110" height="120" as="geometry" />
        </mxCell>
        <mxCell id="TFrSJje2NMNWRHDvTqmv-44" value="HTTP" style="shape=flexArrow;endArrow=classic;startArrow=classic;html=1;rounded=0;labelPosition=center;verticalLabelPosition=bottom;align=center;verticalAlign=top;" edge="1" parent="1">
          <mxGeometry width="100" height="100" relative="1" as="geometry">
            <mxPoint x="659" y="684.58" as="sourcePoint" />
            <mxPoint x="840" y="685" as="targetPoint" />
          </mxGeometry>
        </mxCell>
        <mxCell id="TFrSJje2NMNWRHDvTqmv-45" value="SQL" style="shape=flexArrow;endArrow=classic;startArrow=classic;html=1;rounded=0;labelPosition=left;verticalLabelPosition=middle;align=right;verticalAlign=middle;entryX=0.82;entryY=0.735;entryDx=0;entryDy=0;entryPerimeter=0;" edge="1" parent="1" target="TFrSJje2NMNWRHDvTqmv-6">
          <mxGeometry width="100" height="100" relative="1" as="geometry">
            <mxPoint x="1170" y="770" as="sourcePoint" />
            <mxPoint x="1170" y="881" as="targetPoint" />
          </mxGeometry>
        </mxCell>
      </root>
    </mxGraphModel>
  </diagram>
</mxfile>
